<svg xmlns="http://www.w3.org/2000/svg" xmlns:xlink="http://www.w3.org/1999/xlink" viewBox="0 0 394 454.95"><defs><style>.cls-1{isolation:isolate;}.cls-2{opacity:0.7;}.cls-3{fill:#00fff2;}.cls-4{fill:url(#linear-gradient);}.cls-5{fill:url(#linear-gradient-2);}.cls-6{fill:url(#linear-gradient-3);}.cls-7{fill:url(#linear-gradient-4);}.cls-8{fill:url(#linear-gradient-5);}.cls-9{fill:url(#linear-gradient-6);}.cls-10{fill:url(#linear-gradient-7);}.cls-11{fill:url(#linear-gradient-8);}.cls-12{fill:url(#linear-gradient-9);}.cls-13{fill:url(#linear-gradient-10);}.cls-14{fill:url(#linear-gradient-11);}.cls-15{fill:url(#linear-gradient-12);}.cls-16{opacity:0.66;mix-blend-mode:soft-light;}</style><linearGradient id="linear-gradient" x1="318.53" y1="40.84" x2="235.19" y2="98.84" gradientUnits="userSpaceOnUse"><stop offset="0" stop-color="#00d3cd"/><stop offset="1" stop-color="#32cef2"/></linearGradient><linearGradient id="linear-gradient-2" x1="221.75" y1="102.81" x2="262.41" y2="74.81" gradientUnits="userSpaceOnUse"><stop offset="0" stop-color="#00d3cd"/><stop offset="0.36" stop-color="#08cbd6"/><stop offset="0.95" stop-color="#1cb6f0"/><stop offset="1" stop-color="#1eb4f2"/></linearGradient><linearGradient id="linear-gradient-3" x1="201.72" y1="335.68" x2="261.06" y2="379.68" xlink:href="#linear-gradient-2"/><linearGradient id="linear-gradient-4" x1="337.17" y1="443.82" x2="234.51" y2="331.15" xlink:href="#linear-gradient"/><linearGradient id="linear-gradient-5" x1="52.79" y1="27.39" x2="144.79" y2="86.72" xlink:href="#linear-gradient"/><linearGradient id="linear-gradient-6" x1="172.3" y1="105.26" x2="126.3" y2="69.93" xlink:href="#linear-gradient-2"/><linearGradient id="linear-gradient-7" x1="184.42" y1="338.44" x2="155.75" y2="361.78" xlink:href="#linear-gradient-2"/><linearGradient id="linear-gradient-8" x1="65.62" y1="438.35" x2="124.96" y2="365.68" xlink:href="#linear-gradient"/><linearGradient id="linear-gradient-9" x1="299.85" y1="282.24" x2="344.5" y2="256.1" xlink:href="#linear-gradient-2"/><linearGradient id="linear-gradient-10" x1="442.28" y1="190.34" x2="346.94" y2="255" xlink:href="#linear-gradient"/><linearGradient id="linear-gradient-11" x1="98.81" y1="271.34" x2="59.48" y2="258.01" xlink:href="#linear-gradient-2"/><linearGradient id="linear-gradient-12" x1="-68.22" y1="183.54" x2="27.78" y2="242.87" xlink:href="#linear-gradient"/></defs><title>Asset 1</title><g class="cls-1"><g id="Layer_2" data-name="Layer 2"><g id="Layer_2-2" data-name="Layer 2"><g id="Polygon"><path d="M197,0,0,113.74V341.21L197,455,394,341.21V113.74ZM307,291,197,354.49,87,291V164l110-63.51L307,164Z"/></g><g class="cls-2"><path class="cls-3" d="M191.84,225.48l-12.58-7-12.53-7.13-25-14.4-24.86-14.6c-8.27-4.9-16.53-9.82-24.73-14.83,8.41,4.66,16.77,9.4,25.11,14.17l25,14.4,24.86,14.6L179.51,218Z"/></g><g class="cls-2"><path class="cls-3" d="M301.84,167.48l-12.34,7.46-12.39,7.37-24.86,14.6-25,14.4c-8.35,4.76-16.7,9.51-25.11,14.17,8.2-5,16.46-9.93,24.73-14.83L251.75,196l25-14.4,12.53-7.13Z"/></g><g class="cls-2"><path class="cls-3" d="M197,234.51l.25,13.24.15,13.24.13,26.48L197.39,314c-.08,8.83-.17,17.65-.37,26.48-.21-8.83-.31-17.65-.39-26.48l-.13-26.48.1-26.48.13-13.24Z"/></g><polygon class="cls-4" points="197 0 394 113.74 307 163.97 197 0"/><polygon class="cls-5" points="197 0 197 100.46 307 163.97 197 0"/><polygon class="cls-6" points="197 354.49 197 454.95 307 290.98 197 354.49"/><polygon class="cls-7" points="394 341.21 197 454.95 307 290.98 394 341.21"/><polygon class="cls-8" points="0 113.74 197 0 87 163.97 0 113.74"/><polygon class="cls-9" points="87 163.97 197 100.46 197 0 87 163.97"/><polygon class="cls-10" points="87 290.98 197 454.95 197 354.49 87 290.98"/><polygon class="cls-11" points="87 290.98 0 341.21 197 454.95 87 290.98"/><polygon class="cls-12" points="307 163.97 394 341.21 307 290.98 307 163.97"/><polygon class="cls-13" points="307 163.97 394 113.74 394 341.21 307 163.97"/><polygon class="cls-14" points="87 163.97 0 341.21 87 290.98 87 163.97"/><polygon class="cls-15" points="0 113.74 0 341.21 87 163.97 0 113.74"/><g class="cls-16"><path class="cls-3" d="M313,160.52c6.15-3.79,12.36-7.48,18.57-11.16l18.7-10.93,18.82-10.73,9.45-5.3c3.17-1.73,6.32-3.5,9.5-5.2-3.07,1.9-6.17,3.75-9.26,5.63l-9.31,5.54-18.71,10.93L331.93,150C325.63,153.56,319.33,157.09,313,160.52Z"/></g><g class="cls-16"><path class="cls-3" d="M81,160.52c-6.36-3.43-12.66-7-19-10.5L43.25,139.29,24.54,128.35l-9.31-5.54C12.15,120.94,9,119.09,6,117.19c3.18,1.71,6.34,3.47,9.5,5.2l9.45,5.3,18.82,10.73,18.7,10.93C68.67,153,74.87,156.73,81,160.52Z"/></g></g></g></g></svg>